<svg xmlns="http://www.w3.org/2000/svg" width="80" height="80" viewBox="0 0 80 80">
    <g fill="none" fill-rule="evenodd">
        <path d="M0 0h80v80H0z"/>
        <path fill="#9E7EB6" d="M47.616 12.026H32.169a3.863 3.863 0 0 0-3.861 3.862v5.792h3.861v-3.862a1.93 1.93 0 0 1 1.931-1.93h11.585a1.93 1.93 0 0 1 1.93 1.93v3.862h3.863v-5.793c0-2.13-1.73-3.861-3.862-3.861z"/>
        <path fill="#B4A5C3" d="M12.862 21.682h54.062a3.863 3.863 0 0 1 3.862 3.863v38.616a3.863 3.863 0 0 1-3.862 3.862H12.862A3.863 3.863 0 0 1 9 64.16V25.545a3.863 3.863 0 0 1 3.862-3.863z"/>
        <path fill="#33124B" d="M49.547 40.988h-5.793v-5.789a1.932 1.932 0 0 0-1.93-1.934h-3.862c-1.068 0-1.931.867-1.931 1.934v5.789h-5.792c-1.068 0-1.931.867-1.931 1.93v3.862c0 1.07.863 1.935 1.93 1.935h5.793v5.788c0 1.07.863 1.931 1.93 1.931h3.863c1.067 0 1.93-.861 1.93-1.93v-5.79h5.793c1.068 0 1.93-.864 1.93-1.934V42.92c0-1.062-.863-1.931-1.93-1.931z"/>
        <path fill="#694C88" fill-rule="nonzero" d="M12.862 21.682A3.863 3.863 0 0 0 9 25.545v9.652l13.516-13.515h-9.654zm-.02 46.339h9.674L9 54.503v9.658a3.86 3.86 0 0 0 3.842 3.86zm54.082-46.34H57.27l13.516 13.516v-9.652a3.863 3.863 0 0 0-3.862-3.863zm.02 46.34a3.861 3.861 0 0 0 3.841-3.86v-9.658L57.27 68.021h9.673z"/>
    </g>
</svg>
