<svg xmlns="http://www.w3.org/2000/svg" width="60" height="60" viewBox="0 0 60 60">
    <g fill="none" fill-rule="evenodd">
        <path d="M0 0h60v60H0z"/>
        <path fill="#3C0A64" stroke="#3C0A64" stroke-width="2" d="M45.536 38.101a2.311 2.311 0 0 1-3.228.04c-.027-.03-.054-.063-.084-.092l-.002.002-5.073-5.748-.337.3 4.995 5.643.14.174c.002.002.006.003.008.006.413.44.675 1.04.714 1.666.041.671-.17 1.273-.593 1.696a2.23 2.23 0 0 1-1.634.67 2.202 2.202 0 0 1-1.564-.716 2.682 2.682 0 0 0-.621-.985l-5.024-6.14-.349.285 5.04 6.157a2.315 2.315 0 0 1 0 3.27 2.297 2.297 0 0 1-1.636.678c-.617 0-1.198-.24-1.622-.663l-1.394-1.648a2.807 2.807 0 0 0-.458-.557l-.007.007-.516-.61a2.7 2.7 0 0 0-.852-1.581 2.608 2.608 0 0 0-2.482-.592c.6-1.04.466-2.39-.422-3.278a2.703 2.703 0 0 0-2.525-.727 2.698 2.698 0 0 0 .712-1.828 2.7 2.7 0 0 0-.797-1.923 2.7 2.7 0 0 0-1.922-.796c-.699 0-1.355.264-1.86.74a2.713 2.713 0 0 0-.72-2.53 2.715 2.715 0 0 0-3.735-.09l-.005-.005-.05.05c-.017.017-.037.028-.054.044l.005.005-2.382 2.39-1.558-1.938a10.767 10.767 0 0 1-1.944-6.194c0-5.973 4.86-10.833 10.832-10.833a10.77 10.77 0 0 1 7.432 2.955l-6.83 7.553.14.151c.104.111 2.56 2.7 5.043 1.61 1.165-.512 2.057-1.413 2.844-2.209.84-.849 1.565-1.582 2.386-1.636.57-.039 1.537.17 2.66.412 2.184.47 4.902 1.053 6.487.195l-.214-.396c-1.44.779-4.068.214-6.178-.24-1.157-.248-2.16-.464-2.785-.42-.992.065-1.81.893-2.676 1.769-.759.766-1.619 1.635-2.706 2.113-1.871.822-3.84-.845-4.385-1.36l6.908-7.639a10.8 10.8 0 0 1 7.33-2.858c5.974 0 10.833 4.86 10.833 10.833 0 2.872-1.113 5.577-3.119 7.606l-1.708 1.456-8.965-10.42-.341.293 10.85 12.612h-.002c.437.437.678 1.018.678 1.636 0 .618-.24 1.198-.678 1.635zm-12.853 7.502a2.268 2.268 0 0 1-3.147.191l2.08-1.998c.395-.433.632-.97.692-1.542l.6.709c.518.825.46 1.889-.225 2.64zm-4.937 1.286a2.272 2.272 0 0 1-3.205.148c-.44-.4-.685-.93-.69-1.492-.004-.554.222-1.11.637-1.567l3.523-3.524c.847-.92 2.216-.994 3.124-.166.448.408.71.966.738 1.572a2.246 2.246 0 0 1-.58 1.622l-3.547 3.407zm-6.89-3.124c-.922-.922-.977-2.483-.123-3.337l4.275-4.024a2.254 2.254 0 0 1 1.604-.665 2.27 2.27 0 0 1 1.605 3.872l-4.153 4.154a2.254 2.254 0 0 1-1.604.664 2.254 2.254 0 0 1-1.604-.664zm-3.994-3.325c-.86-.86-.826-2.24.075-3.142l.044-.043c.099-.075.2-.147.29-.237l2.958-2.958 2.17-2.134a2.254 2.254 0 0 1 1.604-.665c.605 0 1.175.236 1.603.665.429.428.665.998.665 1.604 0 .606-.236 1.175-.66 1.6l-5.54 5.31a2.252 2.252 0 0 1-1.605.664 2.252 2.252 0 0 1-1.604-.664zm-3.117-3.74a2.254 2.254 0 0 1-.099-3.089l4.307-4.318a2.267 2.267 0 0 1 3.152.046 2.27 2.27 0 0 1 0 3.208l-1.193 1.193-3.249 3.197a2.267 2.267 0 0 1-2.918-.238zm32.164-2.128l-1.622-1.885 1.722-1.468a11.214 11.214 0 0 0 3.262-7.936C49.271 17.06 44.211 12 37.99 12c-2.838 0-5.55 1.057-7.65 2.99l-.073.082A11.219 11.219 0 0 0 22.532 12c-6.221 0-11.282 5.061-11.282 11.283 0 2.323.7 4.553 2.034 6.463l1.598 1.989-1.445 1.448-.01-.01a2.7 2.7 0 0 0-.797 1.922c0 .726.283 1.41.797 1.923a2.71 2.71 0 0 0 1.922.795c.257 0 .51-.049.76-.12-.53 1.01-.396 2.235.435 3.065a2.7 2.7 0 0 0 1.922.796c.476 0 .932-.123 1.334-.35-.273.97-.03 2.112.738 2.879a2.701 2.701 0 0 0 1.922.796c.387 0 .76-.082 1.104-.235a2.57 2.57 0 0 0-.162.905c.005.688.302 1.335.835 1.82.522.476 1.18.71 1.834.71.736 0 1.468-.295 1.997-.876l1.14-1.094a2.713 2.713 0 0 0 3.808-.202 2.609 2.609 0 0 0 .675-2.019l.644.76c.522.522 1.215.81 1.953.81a2.744 2.744 0 0 0 2.74-3.022c.417.274.9.42 1.406.42h.05c.714 0 1.39-.255 1.91-.775.517-.516.774-1.213.724-2.015a3.217 3.217 0 0 0-.244-1.037 2.769 2.769 0 0 0 2.98-.61c.523-.521.81-1.215.81-1.953 0-.71-.269-1.38-.755-1.894z"/>
    </g>
</svg>
