<svg xmlns="http://www.w3.org/2000/svg" width="80" height="80" viewBox="0 0 80 80">
    <g fill="none" fill-rule="evenodd">
        <path d="M0 0h80v80H0z"/>
        <g transform="translate(13 13)">
            <path fill="#694C88" d="M50.836 0l-10.02 27 10.02 27H54V0z"/>
            <path fill="#B4A5C3" d="M47.672 0l-10.02 27 10.02 27h3.164V0z"/>
            <path fill="#694C88" d="M41.344 0L27 54h20.672V0z"/>
            <path fill="#B4A5C3" d="M22.254 54H2a2 2 0 0 1-2-2V2a2 2 0 0 1 2-2h42.508v38.074L28.582 54h-6.328z"/>
            <path fill="#694C88" d="M22.254 47.566H9.384a1 1 0 0 1-1-1v-1.164a1 1 0 0 1 1-1H30.85v3.164h-8.596zm.985-6.328H9.385a1 1 0 0 1-1-1v-1.164a1 1 0 0 1 1-1H32.523l3.327 3.164H23.24zm-.985-6.328H9.384a1 1 0 0 1-1-1v-1.164a1 1 0 0 1 1-1H35.124a1 1 0 0 1 1 1v1.164a1 1 0 0 1-1 1h-12.87z"/>
            <path fill="#33124B" d="M20.672 25.26a7.902 7.902 0 0 1-4.34-2.507l-2.878 1.662-1.582-2.74 2.877-1.661a7.902 7.902 0 0 1-.405-2.506c0-.876.142-1.719.405-2.506l-2.877-1.661 1.582-2.74 2.879 1.662a7.902 7.902 0 0 1 4.339-2.507V6.434h3.164v3.322a7.902 7.902 0 0 1 4.339 2.507l2.878-1.662 1.583 2.74L29.759 15c.263.788.405 1.63.405 2.507 0 .876-.142 1.718-.405 2.506l2.877 1.66-1.583 2.741-2.878-1.662a7.902 7.902 0 0 1-4.34 2.507v3.322h-3.163V25.26z"/>
            <path fill="#B4A5C3" d="M22.254 22.254a4.746 4.746 0 1 1 0-9.492 4.746 4.746 0 0 1 0 9.492z"/>
            <circle cx="22.254" cy="17.508" r="1.582" fill="#33124B"/>
            <path fill="#9E7EB6" d="M28.582 40.074V54l15.926-15.926H30.582a2 2 0 0 0-2 2z"/>
        </g>
    </g>
</svg>
