<svg xmlns="http://www.w3.org/2000/svg" width="80" height="80" viewBox="0 0 80 80">
    <g fill="none" fill-rule="evenodd">
        <path d="M0 0h80v80H0z"/>
        <path fill="#9E7EB6" d="M15.757 26.992h8.45l-.431 5.842h-8.45l.431-5.842zm-2.75 37.649l.299-4.136 8.43.278-.279 3.858h-8.45zm.427-5.911l1.563-22.002h8.449L21.863 59.01l-8.429-.281zM54.929 56.2h11.684v8.44H54.93V56.2zm0-35.051h11.684v25.316H54.93V21.15z"/>
        <path fill="#33124B" d="M13.306 60.497l.128-1.767 8.43.28-.129 1.768-8.43-.28zm1.69-23.77l.33-3.893h8.45l-.33 3.894h-8.45zm9.426-25.314h11.685v6.492H24.422v-6.492zm0 18.176h11.685V64.64H24.422V29.589zM37.403 56.2h8.44V58.8h-8.44V56.2zm17.526-9.735h11.684V56.2H54.93v-9.735z"/>
        <path fill="#B4A5C3" d="M24.422 17.905h11.685v11.684H24.422V17.905zM37.403 42.57h8.44v13.631h-8.44v-13.63zm0 16.229h8.44v5.842h-8.44v-5.842zm0-33.106h8.44v9.738h-8.44v-9.738zm0-8.437h8.44v6.49h-8.44v-6.49zm12.85-1.47l.174 2.213-4.072.285-.176-2.215 4.074-.283zm-.933 40.02l4.056-.52.292 3.712-4.055.52-.293-3.712z"/>
        <path fill="#694C88" d="M37.403 35.431h8.44v7.14h-8.44v-7.14zm0-11.685h8.44v1.947h-8.44v-1.947zM50.02 64.641l-.406-5.114 4.055-.524.447 5.638h-4.096zm-.124-53.551l.358 4.696-4.074.283-.355-4.656 4.071-.323zm.532 6.91l2.949 37.286-4.056.52-2.965-37.522 4.072-.285z"/>
        <path fill="#694C88" d="M3 64.64h74v6.435H3v-6.434z"/>
    </g>
</svg>
