<svg xmlns="http://www.w3.org/2000/svg" width="60" height="60" viewBox="0 0 60 60">
    <g fill="none" fill-rule="evenodd">
        <path d="M0 0h60v60H0z"/>
        <path fill="#3C0A64" stroke="#3C0A64" stroke-width="2" d="M40.92 47.674c-4.824 0-8.748-3.924-8.748-8.748a8.646 8.646 0 0 1 1.064-4.185 8.813 8.813 0 0 1 4.187-3.836 8.683 8.683 0 0 1 3.498-.727c4.824 0 8.748 3.924 8.748 8.748s-3.924 8.748-8.748 8.748zm.036-35.234v17.3l-.035-.002a9.123 9.123 0 0 0-3.673.764 9.219 9.219 0 0 0-2.885 2V12.44h6.593zm-17.141 8.35h6.592v22.416h-6.592V20.79zm-10.11 7.472h6.593v14.944h-6.592V28.262zm27.69 1.5V12h-7.472v20.984a9.155 9.155 0 0 0-1.073 1.546 9.082 9.082 0 0 0-1.118 4.396c0 1.545.388 3 1.065 4.28h-1.95V20.35h-7.472v22.855h-2.637V27.823h-7.472v15.383H9.75v.44h23.294v-.013c1.607 2.678 4.532 4.48 7.877 4.48 5.066 0 9.187-4.12 9.187-9.187 0-4.906-3.867-8.915-8.713-9.164zM37.413 42.46l8.068-7.963.31.313-8.062 7.956h6.277v.44h-7.033v-7.472h.44v6.726z"/>
    </g>
</svg>
