<svg xmlns="http://www.w3.org/2000/svg" width="80" height="80" viewBox="0 0 80 80">
    <g fill="none" fill-rule="evenodd">
        <path d="M0 0h80v80H0z"/>
        <path fill="#694C88" d="M13.45 18.538H8v-4.087A5.45 5.45 0 0 1 13.45 9c3.01 0 9.539 2.44 9.539 5.45v4.089h-9.538z"/>
        <path fill="#B4A5C3" d="M55.011 66.19L24.351 71a5.45 5.45 0 0 1-5.45-5.45v-51.1A5.45 5.45 0 0 0 13.451 9h40.197a5.45 5.45 0 0 1 5.45 5.45v51.1l-4.087.64z"/>
        <path fill="#694C88" d="M60.462 71h-36.11a5.45 5.45 0 0 0 5.45-5.45v-4.088H70v4.087A5.45 5.45 0 0 1 64.55 71h-4.088z"/>
        <path fill="#33124B" fill-rule="nonzero" d="M39 14.11c-6.574 0-11.923 5.349-11.923 11.923 0 6.575 5.348 11.923 11.923 11.923 2.403 0 4.72-.713 6.702-2.061a1.022 1.022 0 1 0-1.15-1.69c-.78.53-1.621.94-2.504 1.226 1.028-2.076 1.603-5.185 1.705-8.376h5.073a9.807 9.807 0 0 1-1.654 4.53 1.022 1.022 0 1 0 1.69 1.15 11.86 11.86 0 0 0 2.061-6.702c0-6.574-5.349-11.923-11.923-11.923zm9.826 10.901h-5.073c-.102-3.189-.677-6.297-1.703-8.373 3.647 1.187 6.37 4.44 6.776 8.373zM39 16.154c.33 0 1.052.666 1.683 2.503.59 1.715.947 3.942 1.026 6.354h-5.417c.078-2.412.435-4.64 1.025-6.354.631-1.837 1.352-2.503 1.683-2.503zm-3.05.484c-1.026 2.076-1.601 5.184-1.703 8.373h-5.073c.406-3.933 3.129-7.186 6.776-8.373zm-6.776 10.417h5.073c.102 3.189.677 6.297 1.703 8.373-3.647-1.187-6.37-4.44-6.776-8.373zm11.51 6.354c-.632 1.836-1.353 2.503-1.684 2.503-.33 0-1.052-.667-1.683-2.503-.59-1.715-.947-3.942-1.026-6.354h5.418c-.08 2.412-.436 4.64-1.026 6.354z"/>
        <path fill="#694C88" d="M52.967 56.352H41.044a1.022 1.022 0 0 1 0-2.044h11.923a1.022 1.022 0 0 1 0 2.044zm-16.01 0H25.032a1.022 1.022 0 0 1 0-2.044h11.923a1.022 1.022 0 0 1 0 2.044zm16.01-6.132H41.044a1.022 1.022 0 0 1 0-2.044h11.923a1.022 1.022 0 0 1 0 2.044zm-16.01 0H25.032a1.022 1.022 0 0 1 0-2.044h11.923a1.022 1.022 0 0 1 0 2.044zm16.01-6.132H41.044a1.022 1.022 0 0 1 0-2.044h11.923a1.022 1.022 0 0 1 0 2.044zm-16.01 0H25.032a1.022 1.022 0 0 1 0-2.044h11.923a1.022 1.022 0 0 1 0 2.044z"/>
    </g>
</svg>
