<svg xmlns="http://www.w3.org/2000/svg" width="60" height="60" viewBox="0 0 60 60">
    <g fill="none" fill-rule="evenodd">
        <path d="M0 0h60v60H0z"/>
        <path fill="#3C0A64" fill-rule="nonzero" d="M11.25 8.445v35.587h8.745l16.597 9.554.927.539.539-.927 14.019-24.263.54-.944-.928-.54-13.48-7.767V8.445H11.25zm3.15 2.157H35.06L32.8 13.837H16.659L14.4 10.602zm-.993 2.325l1.82 2.595.32.472H33.913l.32-.472 1.82-2.595v5.527l-2.157-1.247-.927-.539-.539.944-14.019 24.263h-5.004V12.927zm20.337 6.69l15.94 9.166-12.94 22.393-15.94-9.166 12.94-22.393zm.691 3.707a1.618 1.618 0 1 0 0 3.235 1.618 1.618 0 0 0 0-3.235zm3.05 2.207l-1.045 1.887 8.594 4.82 1.044-1.888-8.593-4.819zm-5.931 2.763a1.618 1.618 0 1 0 0 3.235 1.618 1.618 0 0 0 0-3.235zm3.067 2.224l-1.062 1.87 8.61 4.82 1.045-1.887-8.593-4.803zm-5.931 2.764a1.618 1.618 0 1 0 0 3.235 1.618 1.618 0 0 0 0-3.235zm3.05 2.207l-1.045 1.887 8.593 4.803 1.062-1.888-8.61-4.802zm-5.932 2.764a1.618 1.618 0 1 0 0 3.235 1.618 1.618 0 0 0 0-3.235zm3.067 2.207l-1.062 1.887 8.61 4.802 1.045-1.87-8.593-4.82z"/>
    </g>
</svg>
