<svg xmlns="http://www.w3.org/2000/svg" width="80" height="80" viewBox="0 0 80 80">
    <g fill="none" fill-rule="evenodd">
        <path d="M0 0h80v80H0z"/>
        <path fill="#B4A5C3" d="M46.678 71.774H12a2 2 0 0 1-2-2V19.502a2 2 0 0 1 2-2h36.2c.264 0 .478.214.478.477v51.795a2 2 0 0 1-2 2z"/>
        <path fill="#33124B" d="M20.881 67.504h-6.414a.477.477 0 0 1-.476-.477V48.09c0-.263.213-.476.476-.476h6.414c.263 0 .477.213.477.476v18.938a.477.477 0 0 1-.477.477zm11.542 0h-6.414a.477.477 0 0 1-.477-.477V40.722c0-.263.214-.477.477-.477h6.414c.263 0 .477.214.477.477v26.305a.477.477 0 0 1-.477.477zm11.787 0h-6.413a.477.477 0 0 1-.477-.477V43.423c0-.263.213-.476.477-.476h6.413c.264 0 .477.213.477.476v23.604a.477.477 0 0 1-.477.477z"/>
        <path fill="#FFF" d="M15.464 23.335a.894.894 0 1 1 0-1.787h27.013a.894.894 0 1 1 0 1.787H15.464zm27.013 2.305a.894.894 0 1 1 0 1.788H15.464a.894.894 0 1 1 0-1.788h27.013zm0 4.093a.894.894 0 1 1 0 1.788H15.464a.894.894 0 1 1 0-1.788h27.013zM22.35 33.826a.894.894 0 1 1 0 1.788h-6.886a.894.894 0 1 1 0-1.788h6.886z"/>
        <path fill="#694C88" d="M57.724 45.426c-7.668 6.245-18.972 5.795-26.116-1.35-7.624-7.623-7.624-19.985 0-27.609 7.624-7.624 19.985-7.624 27.61 0 7.225 7.226 7.603 18.706 1.133 26.377l10.134 10.134a1.842 1.842 0 1 1-2.604 2.605L57.724 45.426z"/>
        <path fill="#FFF" d="M56.613 41.472c-6.175 6.176-16.224 6.176-22.4 0-6.176-6.176-6.176-16.224 0-22.4 6.176-6.176 16.224-6.176 22.4 0 6.176 6.175 6.176 16.224 0 22.4z"/>
    </g>
</svg>
