<svg xmlns="http://www.w3.org/2000/svg" xmlns:xlink="http://www.w3.org/1999/xlink" width="1440" height="256" viewBox="0 0 1440 256">
    <defs>
        <path id="a" d="M0 3.008A3.002 3.002 0 0 1 3.005 0H1440v256H3.005A3.007 3.007 0 0 1 0 252.992V3.008z"/>
    </defs>
    <g fill="none" fill-rule="evenodd">
        <path fill="#282828" d="M-30-967h1500v2067H-30z"/>
        <g>
            <mask id="b" fill="#fff">
                <use xlink:href="#a"/>
            </mask>
            <use fill="#4C0D7D" xlink:href="#a"/>
            <path fill="#5E258A" d="M400.51 35.062H222.572v-175.864c0-7.287-5.979-13.19-13.343-13.198H84.6c-7.371 0-13.343 5.911-13.343 13.198L71.25 35.077l-177.9-.007c-7.076 0-13.343 6.195-13.35 13.198v123.21a13.078 13.078 0 0 0 3.91 9.332 13.407 13.407 0 0 0 9.44 3.859H71.257v175.915c0 3.494 1.406 6.857 3.91 9.332a13.44 13.44 0 0 0 9.44 3.866h124.616a13.47 13.47 0 0 0 9.455-3.88 13.121 13.121 0 0 0 3.895-9.318V184.676l177.93-.007c3.681 0 7.017-1.471 9.44-3.859a13.079 13.079 0 0 0 3.91-9.34l.007-123.21c0-7.286-5.972-13.19-13.35-13.198zM790.255-23.469h-88.968V-111.4c0-3.643-2.99-6.595-6.672-6.599H632.3c-3.686 0-6.671 2.956-6.671 6.6l-.004 87.938-88.95-.003c-3.538 0-6.671 3.097-6.675 6.599v61.605a6.539 6.539 0 0 0 1.955 4.666 6.704 6.704 0 0 0 4.72 1.93h88.954v87.957c0 1.747.703 3.429 1.955 4.666a6.72 6.72 0 0 0 4.72 1.933h62.308a6.735 6.735 0 0 0 4.727-1.94 6.56 6.56 0 0 0 1.948-4.66V51.339l88.964-.004c1.841 0 3.509-.735 4.72-1.929a6.54 6.54 0 0 0 1.955-4.67l.004-61.605c0-3.643-2.986-6.595-6.675-6.599zM1447.255 144.531h-88.968V56.6c0-3.643-2.99-6.595-6.672-6.599H1289.3c-3.686 0-6.671 2.956-6.671 6.6l-.004 87.938-88.95-.003c-3.538 0-6.671 3.097-6.675 6.599v61.605a6.539 6.539 0 0 0 1.955 4.666 6.704 6.704 0 0 0 4.72 1.93h88.954v87.957c0 1.747.703 3.429 1.955 4.666a6.72 6.72 0 0 0 4.72 1.933h62.308a6.735 6.735 0 0 0 4.727-1.94 6.56 6.56 0 0 0 1.948-4.66v-87.953l88.964-.004c1.841 0 3.509-.735 4.72-1.929a6.54 6.54 0 0 0 1.955-4.67l.004-61.605c0-3.643-2.986-6.595-6.675-6.599z" mask="url(#b)"/>
        </g>
    </g>
</svg>
