<svg xmlns="http://www.w3.org/2000/svg" width="80" height="80" viewBox="0 0 80 80">
    <g fill="none" fill-rule="evenodd">
        <path d="M0 0h80v80H0z"/>
        <path fill="#9E7EB6" d="M63.415 74H16.523C15.682 74 15 73.42 15 72.707V13.668c0-.714.682-1.293 1.523-1.293h46.892c.84 0 1.522.58 1.522 1.293v59.039c.001.714-.68 1.293-1.522 1.293z"/>
        <path fill="#FFF" d="M60.688 17.163v52.05c0 .297-.288.537-.641.537H20.954c-.353 0-.642-.24-.642-.538v-52.05c0-.297.289-.537.642-.537h39.093c.353 0 .64.24.64.538z"/>
        <path fill="#694C88" d="M52.188 18.87v.048c0 .494-.479.894-1.069.894H28.842c-.603 0-1.092-.421-1.092-.941v-5.863c0-.521.489-.943 1.092-.943h4.101c0-3.35 3.145-6.065 7.025-6.065.864 0 1.69.134 2.454.381 2.32.746 4.06 2.522 4.477 4.683.096.324.16.658.187 1h4.009c.604 0 1.092.423 1.092.944v5.863z"/>
        <path fill="#B4A5C3" d="M36.213 42.125h-9.488c-.608 0-1.1-.447-1.1-1V32.5c0-.552.492-.999 1.1-.999h9.488c.607 0 1.1.448 1.1 1v8.626c0 .552-.493.999-1.1.999zm17 0h-9.489c-.607 0-1.099-.447-1.099-1V32.5c0-.552.492-.999 1.099-.999h9.49c.607 0 1.099.448 1.099 1v8.626c0 .552-.492.999-1.1.999zm-17 23.375h-9.488c-.608 0-1.1-.448-1.1-1v-8.625c0-.552.492-1 1.1-1h9.488c.607 0 1.1.448 1.1 1V64.5c0 .552-.493 1-1.1 1zm17 0h-9.489c-.607 0-1.099-.448-1.099-1v-8.625c0-.552.492-1 1.099-1h9.49c.607 0 1.099.448 1.099 1V64.5c0 .552-.492 1-1.1 1z"/>
        <path fill="#694C88" d="M25.884 24.072c-.672 0-1.216-.468-1.216-1.044 0-.577.544-1.044 1.216-1.044h29.31c.672 0 1.216.467 1.216 1.044 0 .576-.544 1.044-1.216 1.044h-29.31zm0 4.24c-.672 0-1.216-.468-1.216-1.044 0-.576.544-1.044 1.216-1.044h21.084c.672 0 1.216.468 1.216 1.044 0 .576-.544 1.044-1.216 1.044H25.884zm29.31-2.088c.671 0 1.216.468 1.216 1.044 0 .576-.545 1.044-1.216 1.044h-3.36c-.672 0-1.217-.468-1.217-1.044 0-.576.545-1.044 1.217-1.044h3.36zm0 19.007c.671 0 1.216.468 1.216 1.044 0 .576-.544 1.043-1.216 1.043h-29.31c-.672 0-1.216-.467-1.216-1.043 0-.576.544-1.044 1.216-1.044h29.31zm0 4.24c.671 0 1.216.468 1.216 1.044 0 .576-.545 1.043-1.216 1.043H34.11c-.672 0-1.217-.467-1.217-1.043 0-.576.545-1.044 1.217-1.044h21.084zm-25.95 0c.673 0 1.217.468 1.217 1.044 0 .576-.545 1.043-1.217 1.043h-3.36c-.672 0-1.216-.467-1.216-1.043 0-.576.544-1.044 1.216-1.044h3.36z"/>
        <path fill="#33124B" d="M37.898 31.714c.537.346.635.989.22 1.436l-6.008 6.453c-.233.25-.592.397-.972.397h-.008c-.383-.002-.743-.152-.974-.407l-2.157-2.377c-.41-.451-.302-1.093.24-1.434.542-.34 1.313-.25 1.722.2l1.19 1.31 5.021-5.395c.417-.447 1.188-.529 1.726-.183zm10.32 7.88l-2.157-2.378c-.41-.451-.301-1.093.24-1.434.543-.34 1.314-.25 1.723.2l1.189 1.31 5.022-5.395c.416-.447 1.188-.529 1.726-.183.537.346.635.989.219 1.436l-6.007 6.453c-.233.25-.592.397-.972.397h-.008c-.383-.002-.743-.152-.974-.407zm-10.32 15.495c.537.347.635.989.22 1.436l-6.008 6.453c-.233.25-.592.397-.972.397h-.008c-.383-.002-.743-.152-.974-.407l-2.157-2.377c-.41-.451-.302-1.093.24-1.433.542-.341 1.313-.251 1.722.2l1.19 1.31 5.021-5.396c.417-.447 1.188-.529 1.726-.183zm18.063 0c.537.347.635.989.219 1.436l-6.007 6.453c-.233.25-.592.397-.972.397h-.008c-.383-.002-.743-.152-.974-.407l-2.158-2.377c-.41-.451-.301-1.093.24-1.433.543-.341 1.314-.251 1.723.2l1.189 1.31 5.022-5.396c.416-.447 1.188-.529 1.726-.183z"/>
    </g>
</svg>
